<?xml version="1.0"?>
<svg xmlns="http://www.w3.org/2000/svg" xmlns:xlink="http://www.w3.org/1999/xlink" xmlns:svgjs="http://svgjs.com/svgjs" version="1.1" width="512" height="512" x="0" y="0" viewBox="0 0 24 24" style="enable-background:new 0 0 512 512" xml:space="preserve"><g><path xmlns="http://www.w3.org/2000/svg" d="M12,0C5.383,0,0,5.383,0,12s5.383,12,12,12h12V12C24,5.383,18.617,0,12,0Zm-1.706,15.291l-1.414,1.414-3.298-3.298c-.775-.775-.775-2.037,0-2.812l3.298-3.298,1.414,1.414-3.298,3.298,3.298,3.283Zm8.124-1.884l-3.298,3.298-1.414-1.414,3.298-3.298-3.298-3.283,1.414-1.414,3.298,3.298c.775,.775,.775,2.037,0,2.812Z" fill="#aead6a" data-original="#000000"/></g></svg>
